<svg xmlns="http://www.w3.org/2000/svg" viewBox="0 0 151.27 182.24"><defs><style>.cls-1{fill:#fff;}.cls-2{fill:#2d49a0;}</style></defs><title>資產 4</title><g id="圖層_2" data-name="圖層 2"><g id="圖層_1-2" data-name="圖層 1"><path class="cls-1" d="M100.87,12.33c2.46,9.79-4.59,14.17-14.06,16.56S69,30.75,66.58,21,70.91,5.77,80.38,3.38,98.36,2.36,100.87,12.33Z"/><path class="cls-2" d="M78.54,32.45c-7.54,0-12.48-3.77-14.27-10.91C61.78,11.65,67.44,4.19,79.8,1.07c12.55-3.15,20.86.7,23.37,10.67,2.43,9.65-2.88,16.19-15.78,19.44A36.3,36.3,0,0,1,78.54,32.45ZM87.75,4.74A28.27,28.27,0,0,0,81,5.68c-6.77,1.71-14.36,5.64-12.08,14.7,1.79,7.1,6.91,8.82,17.35,6.2C99.3,23.29,99.8,17.82,98.56,12.91,97.16,7.34,93.72,4.74,87.75,4.74Z"/><path class="cls-1" d="M147.63,141.18c-1.42-9.09-9.46-12.61-14.21-14s-12.64-1.89-17.63-4.65-4.2-16.58-4.2-16.58H90s.8,13.82-4.2,16.58S73,125.8,68.22,127.18s-12.79,4.9-14.21,14c-1.14,7.29-1.19,30.48-1.19,30.48h96S148.77,148.46,147.63,141.18Z"/><path class="cls-2" d="M148.81,174h-96a2.5,2.5,0,0,1-1.74-.7,2.34,2.34,0,0,1-.72-1.69c0-1,.06-23.46,1.22-30.83,1.19-7.62,6.85-13.28,15.93-15.91,1.75-.51,3.81-.89,6-1.3,3.84-.71,8.2-1.52,11.12-3.14,2.5-1.39,3.25-9.4,3-14.39a2.33,2.33,0,0,1,.67-1.76,2.49,2.49,0,0,1,1.78-.75h21.55a2.5,2.5,0,0,1,1.78.74,2.34,2.34,0,0,1,.67,1.77c-.28,5,.47,13,3,14.38,2.92,1.62,7.28,2.43,11.12,3.14,2.18.41,4.25.79,6,1.3,9.08,2.64,14.74,8.29,15.93,15.92,1.16,7.37,1.21,29.88,1.22,30.83a2.34,2.34,0,0,1-.72,1.69A2.5,2.5,0,0,1,148.81,174Zm-93.53-4.75h91.07c0-6.08-.26-22.07-1.15-27.75-1.15-7.32-7.42-10.6-12.49-12.07-1.51-.44-3.45-.8-5.51-1.18-4.22-.78-9-1.67-12.63-3.69-4.84-2.67-5.5-11.58-5.5-16.27H92.56c0,4.69-.66,13.59-5.5,16.27-3.63,2-8.41,2.9-12.63,3.69-2.06.38-4,.74-5.51,1.18-5.07,1.47-11.35,4.76-12.49,12.07C55.54,147.21,55.33,163.2,55.28,169.28Z"/><path class="cls-1" d="M131.5,71.46s4.55-18.81-.75-29.28c-5.7-11.28-14.26-17.72-29.94-17.72S76.57,30.9,70.87,42.18c-5.29,10.47-.74,29.28-.74,29.28-7.13-1.38-5.79,6.17-3.56,9.59a20.61,20.61,0,0,1,3,6.25c1.6,4.49,5.29,1.38,5.29,1.38C77,94.45,78.51,95.81,87,103.42c7.42,6.64,10,6.56,13.78,6.56s6.3.07,13.78-6.56c8.56-7.58,10-9,12.18-14.73,0,0,3.68,3.11,5.28-1.38a20.77,20.77,0,0,1,3-6.25C137.29,77.64,138.63,70.08,131.5,71.46Z"/><path class="cls-2" d="M101.06,112.36h-.12l-.24-2.38-.12,2.38c-4.45,0-7.7-.48-15.2-7.19S75.56,96.4,73.55,92a5.64,5.64,0,0,1-1.29.15c-1.07,0-3.71-.39-5-4L67,87.43a17,17,0,0,0-2.52-5.11C63,80,61.29,75.09,63.18,71.75A5.52,5.52,0,0,1,67.13,69C66,63.13,64.31,49.76,68.67,41.14,75.33,28,85.25,22.08,100.81,22.08S126.3,28,133,41.14c4.36,8.62,2.62,22,1.54,27.9a5.54,5.54,0,0,1,4,2.72c1.89,3.34.2,8.25-1.32,10.57a16.92,16.92,0,0,0-2.51,5.08l-.24.68c-1.3,3.63-3.93,4-5,4h0a5.63,5.63,0,0,1-1.29-.15c-2.07,4.57-4.58,6.79-11.83,13.22C108.7,111.88,105.47,112.36,101.06,112.36Zm-26.2-26a2.54,2.54,0,0,1,.62.07,2.43,2.43,0,0,1,1.69,1.49c1.94,5.22,3.22,6.36,11.53,13.79,6.64,5.94,8.72,5.94,11.88,5.94h.37l.12,2.38v-2.38c3.12,0,5.18,0,11.88-5.94,8.61-7.62,9.62-8.63,11.53-13.78a2.44,2.44,0,0,1,1.69-1.5,2.51,2.51,0,0,1,2.23.51,2.29,2.29,0,0,0,1,.46s.17-.25.37-.83l.24-.68a21.28,21.28,0,0,1,3-6.06c1.2-1.83,1.77-4.67,1.17-5.74-.07-.12-.22-.38-1.06-.38a5.93,5.93,0,0,0-1.11.12,2.5,2.5,0,0,1-2.24-.68,2.33,2.33,0,0,1-.63-2.2c0-.18,4.28-18.12-.56-27.69-5.8-11.49-14.1-16.39-27.73-16.39s-21.93,4.9-27.74,16.39c-4.85,9.59-.6,27.51-.56,27.69a2.33,2.33,0,0,1-.63,2.2,2.51,2.51,0,0,1-2.24.68,5.93,5.93,0,0,0-1.11-.12c-.84,0-1,.25-1.06.38-.61,1.07,0,3.91,1.16,5.73a21.35,21.35,0,0,1,3,6.1l.23.65a2.11,2.11,0,0,0,.47.87,3.94,3.94,0,0,0,.89-.5A2.5,2.5,0,0,1,74.86,86.31Z"/><path class="cls-1" d="M121.24,17.16a31,31,0,0,0-32.14,0c-36.19,4.43-23.53,55-23.53,55h0c.78-1.16,2.2-1.76,4.54-1.24-.5-3.69,3.59-8.18,10-13.45a31.59,31.59,0,0,0,9-12.91,34.28,34.28,0,0,0,22.49,17c16.07,3.56,19.46,6.07,19.91,9.36,2.34-.52,3.76.08,4.54,1.24h0S145.78,31.37,121.24,17.16Z"/><path class="cls-2" d="M136.06,74.93h0a2.38,2.38,0,0,1-2-1.11c-.24-.35-1-.42-2.09-.19a2.27,2.27,0,0,1-1.89-.44,2.79,2.79,0,0,1-1-1.82c-.3-2.19-6-4.45-18-7.1A36.51,36.51,0,0,1,89.43,49.92a32.82,32.82,0,0,1-7.84,9.78c-7.25,6-9,9-9.05,10.52a3.07,3.07,0,0,1,.09.74,2.6,2.6,0,0,1-2.45,2.72h0a2.25,2.25,0,0,1-.48-.05,5,5,0,0,0-1.09-.14c-.78,0-.95.25-1,.33a2.38,2.38,0,0,1-2,1.1,2.53,2.53,0,0,1-2.38-2c-.28-1.13-6.79-27.82,3.7-45,4.64-7.61,11.84-12.11,21.41-13.41a33.3,33.3,0,0,1,16.84-4.58,34.07,34.07,0,0,1,17.23,4.81c26,15,16.47,56.4,16.06,58.15A2.51,2.51,0,0,1,136.06,74.93ZM105.15,15.38a28.29,28.29,0,0,0-14.76,4.09,2.35,2.35,0,0,1-1,.39C81,20.88,74.86,24.62,71,31c-7.22,11.82-5,29.84-3.71,37.2a6.29,6.29,0,0,1,.7-.09c1.23-4.41,5.79-8.7,10.71-12.75A29.12,29.12,0,0,0,86.8,43.66a2.5,2.5,0,0,1,2.14-1.76,2.42,2.42,0,0,1,2.33,1.44,31.48,31.48,0,0,0,20.8,15.6c13.32,2.95,19.1,5.32,21.08,9.12a6.69,6.69,0,0,1,1.17.11c1.59-9.71,4.36-37.84-14.22-48.59A29.61,29.61,0,0,0,105.15,15.38Z"/><path class="cls-1" d="M85.84,122.53c-5,2.76-12.87,3.27-17.63,4.65s-12.79,4.9-14.21,14c-1.14,7.29-1.19,30.48-1.19,30.48h96s0-23.19-1.19-30.48c-1.42-9.09-9.46-12.61-14.21-14s-12.64-1.89-17.63-4.65a4.36,4.36,0,0,1-.61-.42L100.69,137,86.45,122.11A4.67,4.67,0,0,1,85.84,122.53Z"/><path class="cls-2" d="M148.81,174h-96a2.5,2.5,0,0,1-1.74-.7,2.34,2.34,0,0,1-.72-1.69c0-1,.06-23.46,1.22-30.83,1.19-7.62,6.85-13.28,15.93-15.91,1.75-.51,3.81-.89,6-1.3,3.84-.71,8.2-1.52,11.12-3.14a2,2,0,0,0,.28-.2,2.51,2.51,0,0,1,3.35.23l12.46,13,12.68-13a2.51,2.51,0,0,1,3.35-.2,1.42,1.42,0,0,0,.25.18c2.94,1.63,7.3,2.44,11.14,3.15,2.18.41,4.25.79,6,1.3,9.08,2.64,14.74,8.29,15.93,15.92,1.16,7.37,1.21,29.88,1.22,30.83a2.34,2.34,0,0,1-.72,1.69A2.5,2.5,0,0,1,148.81,174Zm-93.53-4.75h91.07c0-6.08-.26-22.07-1.15-27.75-1.15-7.32-7.42-10.6-12.49-12.07-1.51-.44-3.45-.8-5.51-1.18-3.83-.71-8.11-1.51-11.59-3.15l-13.13,13.49a2.5,2.5,0,0,1-1.78.74h0a2.49,2.49,0,0,1-1.79-.76L86,125.13c-3.47,1.64-7.75,2.43-11.57,3.14-2.06.38-4,.74-5.51,1.18-5.07,1.47-11.35,4.76-12.49,12.07C55.54,147.21,55.33,163.2,55.28,169.28Z"/><path class="cls-1" d="M115.54,122.53a4.4,4.4,0,0,1-.61-.42s-7.09,4.67-14.24,4.67c-7.3,0-14.24-4.67-14.24-4.67a4.67,4.67,0,0,1-.61.42,29.67,29.67,0,0,1-8,2.64h0l22.82,24.26,22.83-24.26h0A29.62,29.62,0,0,1,115.54,122.53Z"/><path class="cls-2" d="M100.69,151.82h0a2.48,2.48,0,0,1-1.81-.78L76.05,126.78a2.35,2.35,0,0,1-.64-1.6,2.41,2.41,0,0,1,1.92-2.33,28,28,0,0,0,7.29-2.38,2,2,0,0,0,.28-.2,2.52,2.52,0,0,1,2.95-.11c.06,0,6.42,4.24,12.84,4.24s12.79-4.21,12.86-4.26a2.52,2.52,0,0,1,2.94.13,1.42,1.42,0,0,0,.25.18,27.85,27.85,0,0,0,7.3,2.4,2.4,2.4,0,0,1,1.92,2.32,2.37,2.37,0,0,1-.64,1.61L102.5,151A2.48,2.48,0,0,1,100.69,151.82ZM82.41,126.48l18.28,19.44L119,126.48a24.81,24.81,0,0,1-4.05-1.57c-2.57,1.44-8.3,4.24-14.23,4.24S89,126.37,86.45,124.91A25.12,25.12,0,0,1,82.41,126.48Z"/><path class="cls-2" d="M108.84,101a2.38,2.38,0,1,1,0-4.75c11.92,0,20.3-2.44,24.24-7a9.77,9.77,0,0,0,2.41-7.77,2.39,2.39,0,0,1,1.93-2.79,2.44,2.44,0,0,1,2.88,1.83A14.42,14.42,0,0,1,137,92.09C132,98,122.55,101,108.84,101Z"/><path class="cls-1" d="M144.35,76.84c0-7.25-3.1-13.13-6.93-13.17h-2.5v.81c-2.82,1.85-5.07,6.68-5.07,12.36s2.25,10.51,5.07,12.36V90h2.5C141.25,90,144.35,84.09,144.35,76.84Z"/><path class="cls-2" d="M137.42,92.39h-2.5a2.43,2.43,0,0,1-2.43-2c-3.09-2.74-5.1-8-5.1-13.52s2-10.78,5.1-13.52a2.43,2.43,0,0,1,2.43-2h2.5c5.36.05,9.38,6.74,9.38,15.55s-4,15.49-9.35,15.55Zm-.65-4.75h.63c1.84,0,4.49-4.25,4.49-10.8S139.23,66.06,137.4,66h-.63a2.35,2.35,0,0,1-.47.4c-2,1.3-4,5.28-4,10.39s2,9.09,4,10.39A2.39,2.39,0,0,1,136.78,87.64Z"/><path class="cls-1" d="M137.6,87.24A2.88,2.88,0,0,1,135,90.35h-2.58a2.88,2.88,0,0,1-2.58-3.11V66.44a2.88,2.88,0,0,1,2.58-3.11H135a2.88,2.88,0,0,1,2.58,3.11Z"/><path class="cls-2" d="M135,92.72h-2.58a5.28,5.28,0,0,1-5-5.49V66.44a5.28,5.28,0,0,1,5-5.49H135a5.28,5.28,0,0,1,5,5.49v20.8A5.28,5.28,0,0,1,135,92.72Zm-.14-27-2.44,0c.07,0-.13.28-.13.73v20.8a1,1,0,0,0,.27.77l2.33,0a1.1,1.1,0,0,0,.24-.74V66.44A1,1,0,0,0,134.88,65.67Z"/><path class="cls-1" d="M57.28,76.84c0-7.25,3.1-13.13,6.92-13.17H66.7v.81c2.82,1.85,5.07,6.68,5.07,12.36S69.52,87.35,66.7,89.2V90H64.2C60.38,90,57.28,84.09,57.28,76.84Z"/><path class="cls-2" d="M66.7,92.39H64.2c-5.36-.06-9.38-6.75-9.38-15.55s4-15.49,9.35-15.55H66.7a2.49,2.49,0,0,1,1.73.69,2.35,2.35,0,0,1,.69,1.33c3.09,2.74,5.1,8,5.1,13.52s-2,10.78-5.1,13.52A2.43,2.43,0,0,1,66.7,92.39ZM64.2,66c-1.81,0-4.47,4.23-4.47,10.79s2.66,10.77,4.5,10.79h.62a2.35,2.35,0,0,1,.47-.4c2-1.3,4-5.28,4-10.39s-2-9.09-4-10.39a2.35,2.35,0,0,1-.47-.4Z"/><path class="cls-1" d="M64,87.24a2.88,2.88,0,0,0,2.58,3.11h2.58a2.88,2.88,0,0,0,2.58-3.11V66.44a2.88,2.88,0,0,0-2.58-3.11H66.61A2.88,2.88,0,0,0,64,66.44Z"/><path class="cls-2" d="M69.19,92.72H66.61a5.28,5.28,0,0,1-5-5.49V66.44a5.28,5.28,0,0,1,5-5.49h2.58a5.28,5.28,0,0,1,5,5.49v20.8A5.28,5.28,0,0,1,69.19,92.72Zm-.14-27-2.44,0c.07,0-.13.28-.13.73v20.8a1,1,0,0,0,.27.77l2.33,0a1.1,1.1,0,0,0,.24-.74V66.44A1,1,0,0,0,69,65.67Z"/><path class="cls-2" d="M137.57,67.09a2.41,2.41,0,0,1-2.45-2.38c0-18.32-15.39-33.23-34.3-33.23S66.51,46.39,66.51,64.71a2.45,2.45,0,0,1-4.91,0c0-20.94,17.59-38,39.21-38s39.21,17,39.21,38A2.41,2.41,0,0,1,137.57,67.09Z"/><path class="cls-1" d="M113.36,98.64a3,3,0,0,1-3.17,2.8H99.37a3,3,0,0,1-3.17-2.8v-.08a3,3,0,0,1,3.17-2.8h10.82a3,3,0,0,1,3.17,2.8Z"/><path class="cls-2" d="M110.19,103.81H99.37a5.23,5.23,0,1,1,0-10.44h10.82a5.23,5.23,0,1,1,0,10.44ZM99.37,98.13c-.43,0-.71.26-.71.42s.29.51.71.51h10.82c.44,0,.71-.25.71-.42s-.28-.51-.71-.51Z"/><polygon class="cls-1" points="106.24 167.98 28.84 167.98 30.11 179.86 107.51 179.86 121.11 179.86 121.11 167.98 106.24 167.98"/><path class="cls-2" d="M121.11,182.24h-91a2.38,2.38,0,0,1-2.36-2.12l-1.27-11.88a2.38,2.38,0,0,1,2.36-2.63h92.28a2.38,2.38,0,0,1,2.38,2.38v11.88A2.38,2.38,0,0,1,121.11,182.24Zm-88.87-4.75h86.49v-7.13H31.48Z"/><polygon class="cls-1" points="104.71 179.66 9.69 179.66 2.38 107.73 97.4 107.73 104.71 179.66"/><path class="cls-2" d="M104.76,182H9.69a2.38,2.38,0,0,1-2.37-2.14L0,108a2.38,2.38,0,0,1,2.37-2.62h95a2.38,2.38,0,0,1,2.37,2.14L107,179a2.41,2.41,0,0,1,.11.71A2.38,2.38,0,0,1,104.76,182Zm-92.92-4.75h90.24L95.25,110.1H5Z"/><circle class="cls-1" cx="53.54" cy="143.69" r="18.25"/><path class="cls-2" d="M53.54,164.33a20.63,20.63,0,1,1,20.63-20.63A20.66,20.66,0,0,1,53.54,164.33Zm0-36.51a15.88,15.88,0,1,0,15.88,15.88A15.9,15.9,0,0,0,53.54,127.82Z"/><rect class="cls-1" x="50.87" y="131.75" width="5.34" height="14.45"/><path class="cls-2" d="M56.21,148.58H50.87a2.38,2.38,0,0,1-2.38-2.38V131.75a2.38,2.38,0,0,1,2.38-2.38h5.34a2.38,2.38,0,0,1,2.38,2.38V146.2A2.38,2.38,0,0,1,56.21,148.58Zm-3-4.75h.59v-9.7h-.59Z"/><rect class="cls-1" x="50.87" y="150.8" width="5.34" height="4.84"/><rect class="cls-2" x="48.49" y="148.42" width="10.1" height="9.59" rx="2.38" ry="2.38"/></g></g></svg>