<svg xmlns="http://www.w3.org/2000/svg" viewBox="0 0 151.27 182.11"><defs><style>.cls-1{fill:#2d49a0;}.cls-2{fill:#fff;}</style></defs><title>資產 9</title><g id="圖層_2" data-name="圖層 2"><g id="圖層_1-2" data-name="圖層 1"><path class="cls-1" d="M72.88,28.29s-.25.32-1.85,2.45h0l-2-1.27c-1-.64-2.52-2.53-4.72-7.93C61.78,11.65,67.44,4.19,79.8,1.07c8-2,14.22-1.18,18.37,2.23l.14.12a14.44,14.44,0,0,1,4.86,8.32,34.29,34.29,0,0,1,.24,3.69h0a25.08,25.08,0,0,0-2.64.2,20.05,20.05,0,0,0-2.12.49,34.94,34.94,0,0,0-3.42,1,21.09,21.09,0,0,0-2.58,1.09c-.8.41-1.2.61-1.37.73a4.51,4.51,0,0,1-1.44.78l-.31.08c-1.24.25-2.35.33-3.3.52a16,16,0,0,0-1.64.47,31.75,31.75,0,0,0-3.86,1.42,22.42,22.42,0,0,0-4.16,2.48A21.43,21.43,0,0,0,72.88,28.29ZM87.75,4.74A28.28,28.28,0,0,0,81,5.68c-4.86,1.23-10.15,3.6-11.89,8.19a11.23,11.23,0,0,0-.18,6.5c.33,1.5,1,2.89,1.51,2.84.15,0,.21-.16.86-.8l.61-.58c.39-.36.92-.83,1.57-1.34a27.5,27.5,0,0,1,3.29-2.21,28.53,28.53,0,0,1,6.84-2.81c2.93-.77,2.78-.24,4.75-1,3-1.1,3.32-2.31,6.09-3l3.47-.79s-.62-1.12-.79-1.43a11.85,11.85,0,0,0-2-2.42C93,4.93,89.18,4.74,87.75,4.74Z"/><path class="cls-1" d="M101.06,112.36h-.12l-.24-2.38-.12,2.38a5.13,5.13,0,0,1-3.3-.81c-.85-.6-1.08-1.26-2.25-1.75-.49-.2-1.54-.54-1.54-.54h0c-3.17-.24-3.42-.3-3.42-.3-1.53-.35-2.21-1.25-4.69-3.8-2.74-2.82-1.93-1.73-4.1-4A111.37,111.37,0,0,1,73.55,92a5.75,5.75,0,0,1-.63.11,5.44,5.44,0,0,1-.66,0c-1.07,0-3.71-.39-5-4L67,87.43a17,17,0,0,0-2.52-5.11C63,80,61.29,75.09,63.18,71.75A5.52,5.52,0,0,1,67.13,69,78.5,78.5,0,0,1,78.48,58.3c3.34-2.57,5.6-3.84,7.67-7.17s2.26-6.2,3.67-6.33S92,47.93,95,51.8a28.64,28.64,0,0,0,11.67,8.5c3.87,1.7,5.69,1.56,10.67,2.67A77.91,77.91,0,0,1,134.5,69a5.54,5.54,0,0,1,4,2.72c1.89,3.34.2,8.25-1.32,10.57a16.92,16.92,0,0,0-2.51,5.08l-.24.68c-1.3,3.63-3.93,4-5,4a5.63,5.63,0,0,1-1.29-.15c-2.07,4.57-4.58,6.79-11.83,13.22C108.7,111.88,105.47,112.36,101.06,112.36Zm-26.2-26a2.55,2.55,0,0,1,.62.07,2.43,2.43,0,0,1,1.69,1.49c1.94,5.22,3.22,6.36,11.53,13.79,6.64,5.94,8.72,5.94,11.88,5.94h.37l.12,2.38v-2.38c3.12,0,5.18,0,11.88-5.94,8.61-7.62,9.62-8.63,11.53-13.78a2.44,2.44,0,0,1,1.69-1.5,2.51,2.51,0,0,1,2.23.51,2.29,2.29,0,0,0,1,.46s.17-.25.37-.83l.24-.68a21.29,21.29,0,0,1,3-6.06c1.2-1.83,1.77-4.67,1.17-5.74-.07-.12-.22-.38-1.06-.38a5.94,5.94,0,0,0-1.11.12,2.5,2.5,0,0,1-2.24-.68,2.32,2.32,0,0,1-.63-2.2c.63-3-18.3-9.62-18.3-9.62C99.41,57.32,98.11,57,96.15,55,92.9,51.65,92,48,89.65,48.13c-1.73.08-2,2.15-5,5.67-5,5.87-8,4.65-9.83,9-1.3,3.14-2.38,5.77-2.29,8.12a3,3,0,0,1-.63,2.2,2.51,2.51,0,0,1-2.24.68,5.94,5.94,0,0,0-1.11-.12c-.84,0-1,.25-1.06.38-.61,1.07,0,3.91,1.16,5.73a21.35,21.35,0,0,1,3,6.1l.23.65a2.11,2.11,0,0,0,.47.87,3.94,3.94,0,0,0,.89-.5A2.5,2.5,0,0,1,74.86,86.31Z"/><path class="cls-1" d="M136.06,74.93h0a2.38,2.38,0,0,1-2-1.11c-.24-.35-1-.42-2.09-.19a2.27,2.27,0,0,1-1.89-.44,2.79,2.79,0,0,1-1-1.82c-.3-2.19-6-4.45-18-7.1A36.51,36.51,0,0,1,89.43,49.92a32.82,32.82,0,0,1-7.84,9.78c-7.25,6-9,9-9.05,10.52a3.07,3.07,0,0,1,.09.74,2.6,2.6,0,0,1-2.45,2.72h0a2.25,2.25,0,0,1-.48-.05,5,5,0,0,0-1.09-.14c-.78,0-.95.25-1,.33a2.38,2.38,0,0,1-2,1.1,2.53,2.53,0,0,1-2.38-2c-.28-1.13-6.79-27.82,3.7-45,4.64-7.61,11.84-12.11,21.41-13.41a33.3,33.3,0,0,1,16.84-4.58,34.07,34.07,0,0,1,17.23,4.81c26,15,16.47,56.4,16.06,58.15A2.51,2.51,0,0,1,136.06,74.93ZM105.15,15.38a28.29,28.29,0,0,0-14.76,4.09,2.35,2.35,0,0,1-1,.39C81,20.88,74.86,24.62,71,31c-7.22,11.82-5,29.84-3.71,37.2a6.29,6.29,0,0,1,.7-.09c1.23-4.41,5.79-8.7,10.71-12.75A29.12,29.12,0,0,0,86.8,43.66a2.5,2.5,0,0,1,2.14-1.76,2.42,2.42,0,0,1,2.33,1.44,31.48,31.48,0,0,0,20.8,15.6c13.32,2.95,19.1,5.32,21.08,9.12a6.69,6.69,0,0,1,1.17.11c1.59-9.71,4.36-37.84-14.22-48.59A29.61,29.61,0,0,0,105.15,15.38Z"/><path class="cls-1" d="M108.84,101a2.38,2.38,0,1,1,0-4.75c11.92,0,20.3-2.44,24.24-7a9.77,9.77,0,0,0,2.41-7.77,2.39,2.39,0,0,1,1.93-2.79,2.44,2.44,0,0,1,2.88,1.83A14.42,14.42,0,0,1,137,92.09C132,98,122.55,101,108.84,101Z"/><path class="cls-1" d="M69.3,93.24H66.72a9.82,9.82,0,0,1-4.25-.67A10.48,10.48,0,0,1,57,87.25a22.72,22.72,0,0,1-.81-17.94,10.4,10.4,0,0,1,10.5-7.85H69.3a5.28,5.28,0,0,1,5,5.49v20.8A5.28,5.28,0,0,1,69.3,93.24Z"/><path class="cls-1" d="M137.68,67.6a2.41,2.41,0,0,1-2.45-2.38c0-18.32-15.39-33.23-34.3-33.23S66.62,46.9,66.62,65.22a2.45,2.45,0,0,1-4.91,0c0-20.94,17.59-38,39.21-38s39.21,17,39.21,38A2.41,2.41,0,0,1,137.68,67.6Z"/><path class="cls-1" d="M135.13,93.24h-2.58a5.28,5.28,0,0,1-5-5.49V67a5.28,5.28,0,0,1,5-5.49h2.58a7.3,7.3,0,0,1,6.71,2A18.57,18.57,0,0,1,145,68.06c4.5,9.26-.42,19.31-1.42,21.25a7.93,7.93,0,0,1-8.46,3.92Z"/><path class="cls-1" d="M110.19,103.81H99.37a5.23,5.23,0,1,1,0-10.44h10.82a5.23,5.23,0,1,1,0,10.44Z"/><path class="cls-1" d="M121.2,182.11,103.42,182l-.6-2.85h0l-.5-3.67a46.3,46.3,0,0,0-.17-5.17c-.24-2.74-.62-4.22.17-4.83.35-.27,1-.45,2.5.17l16.3,0a2.38,2.38,0,0,1,2.38,2.38v11.88a2.16,2.16,0,0,1-2.29,2.25Zm-18.39-4.48,15.92-.15v-7.13l-16.59-.06Z"/><path class="cls-1" d="M104.76,182H9.69a2.38,2.38,0,0,1-2.37-2.14L0,108a2.38,2.38,0,0,1,2.37-2.62h95a2.38,2.38,0,0,1,2.37,2.14L107,179a2.41,2.41,0,0,1,.11.71A2.38,2.38,0,0,1,104.76,182Zm-92.92-4.75h90.24L95.25,110.1H5Z"/><path class="cls-1" d="M53.54,164.33a20.63,20.63,0,1,1,20.63-20.63A20.66,20.66,0,0,1,53.54,164.33Zm0-36.51a15.88,15.88,0,1,0,15.88,15.88A15.9,15.9,0,0,0,53.54,127.82Z"/><path class="cls-1" d="M56.21,148.58H50.87a2.38,2.38,0,0,1-2.38-2.38V131.75a2.38,2.38,0,0,1,2.38-2.38h5.34a2.38,2.38,0,0,1,2.38,2.38V146.2A2.38,2.38,0,0,1,56.21,148.58Zm-3-4.75h.59v-9.7h-.59Z"/><rect class="cls-2" x="50.87" y="150.8" width="5.34" height="4.84"/><rect class="cls-1" x="48.49" y="148.42" width="10.1" height="9.59" rx="2.38" ry="2.38"/><path class="cls-1" d="M150,140.82c-1.19-7.63-6.85-13.28-15.93-15.92-1.75-.51-3.81-.89-6-1.3-3.84-.71-8.2-1.52-11.12-3.14-2.5-1.38-3.25-9.4-3-14.38a2.34,2.34,0,0,0-.67-1.77,2.5,2.5,0,0,0-1.78-.74H90a2.49,2.49,0,0,0-1.78.75,2.33,2.33,0,0,0-.67,1.76c.07,1.21.07,2.59,0,4h4.92c0-.63,0-1.24,0-1.78h16.51c0,3.43.36,9.12,2.45,13-2.42,1.26-6.65,3.1-10.83,3.1a18,18,0,0,1-4-.5l.5,5a21.71,21.71,0,0,0,3.53.3,22.32,22.32,0,0,0,4.64-.52l-4.75,4.88L97.28,130l.79,7.82.7.73a2.49,2.49,0,0,0,1.79.76h0a2.5,2.5,0,0,0,1.78-.74l13.11-13.47a26,26,0,0,0,3.5,1.33l-18.28,19.44-2-2.14.78,7.71a2.48,2.48,0,0,0,3-.44l21.9-23.28,2.68.51c2.06.38,4,.74,5.51,1.18,5.07,1.47,11.35,4.76,12.49,12.07.89,5.67,1.1,21.67,1.15,27.75l-23.74.08.25,4.69,26.08,0a2.5,2.5,0,0,0,1.74-.7,2.34,2.34,0,0,0,.72-1.69C151.26,170.7,151.21,148.19,150,140.82Z"/></g></g></svg>