<svg xmlns="http://www.w3.org/2000/svg" viewBox="0 0 208.77 127.34"><defs><style>.cls-1{fill:#2d49a0;fill-rule:evenodd;}</style></defs><title>資產 7</title><g id="圖層_2" data-name="圖層 2"><g id="圖層_1-2" data-name="圖層 1"><path class="cls-1" d="M61.25,20.49c2.81,1.4,5.26,3,8,3.85,2.25.67,4.79.28,7.19.47a6.44,6.44,0,0,0,5.78-2.2,15.71,15.71,0,0,1,11.72-4.88c7.66-.06,15.33-.07,23,0a21.2,21.2,0,0,1,5.2.87c5.4,1.46,10.84,2.8,16.11,4.64,3.72,1.3,6.86,1,10-1.65-.73-1.18-1.54-2.45-2.33-3.74-1.45-2.38-1.09-4.12,1.28-5.6Q156.49,6.49,165.83.81c2.28-1.39,4-1,5.45,1.26q18.35,28.77,36.65,57.58c1.52,2.4,1,4.28-1.57,5.68q-9.19,5.06-18.42,10c-2.47,1.33-4,.89-5.59-1.51-1.22-1.83-2.41-3.69-3.76-5.74L165.1,77.53c2.4,3.54,3.37,7.31,2.08,11.36-1.61,5.08-5.07,8.22-10.43,8.92a4.06,4.06,0,0,0-3.19,2c-1.94,3-4.24,5.65-7.71,7a3.41,3.41,0,0,0-1.18,1.21c-1.32,1.77-2.51,3.65-3.93,5.33a13.54,13.54,0,0,1-11.44,5.18,3.48,3.48,0,0,0-3.66,2c-2.53,4.46-6.32,7-11.53,6.8a15.23,15.23,0,0,1-4.69-1.07q-9-3.32-17.93-6.85a2,2,0,0,0-2.87.83A10.56,10.56,0,0,1,71,119.86a2.71,2.71,0,0,0-1.94-1.2c-5.9.73-9.76-1.86-12.12-7.09-9-.89-11.66-3.28-12.94-11.73-4.93-1.25-8.33-4.22-8.67-9.48A16.17,16.17,0,0,1,37,83.46,38.06,38.06,0,0,1,40.5,77.8l-10-10.09c-1.29,2-2.64,4-4,6.09-1.68,2.52-3.12,2.9-5.76,1.48q-9.13-4.93-18.23-9.92C-.19,63.92-.69,62,.91,59.52Q19.15,30.81,37.44,2.12c1.5-2.35,3.2-2.71,5.62-1.24q9,5.46,17.87,11c3.2,2,3.51,3.46,1.46,6.69C62,19.12,61.73,19.68,61.25,20.49Zm32.47,92.22c6,2.3,11.93,4.56,17.84,6.79,4.3,1.63,6.78.47,8.57-4-.68-.4-1.37-.82-2.07-1.22-4-2.27-8-4.49-11.88-6.81a3.45,3.45,0,0,1-1.34-4.95,3.51,3.51,0,0,1,4.83-1.19c.59.29,1.16.64,1.74,1,4.73,2.71,9.42,5.46,14.18,8.12,4.18,2.33,8.71.92,10.4-2.9-7.71-4.81-15.4-9.57-23-14.41a3.38,3.38,0,0,1-1-4.68,3.48,3.48,0,0,1,4.81-1.23c.52.27,1,.6,1.51.91q8.8,5.5,17.6,11c4.94,3.08,9.06,1.85,11.72-3.57l-11.71-7-15.34-9.21c-1.65-1-2.41-2.41-1.79-4.29a3.18,3.18,0,0,1,3.54-2.39,6.88,6.88,0,0,1,2.61,1.06C133.94,79,143,84.48,152,89.87c3,1.8,5.92,1.19,7.71-1.53s1.13-5.73-2.11-7.89q-25.72-17.17-51.46-34.31c-5.48-3.65-9.86-2.78-13.5,2.67l-.73,1.1a10.63,10.63,0,0,1-9.33,4.95,66.19,66.19,0,0,1-6.93-.09,7.35,7.35,0,0,1-4.32-3.4,16.5,16.5,0,0,1-2.45-5.82,10.48,10.48,0,0,1,0-3.93,8.41,8.41,0,0,1,.59-1.87,13,13,0,0,1,1.37-2l2.77-3.88c.4-.56.75-1.16,1.22-1.88-3.28-.4-6.39.45-9.27-1.36C63,29,60.09,27.85,57.26,26.45l-22.76,35c1.82,1.78,3.54,3.4,5.18,5.09s3.29,3.55,4.86,5.26c6.18-4.18,10.65-3.8,15.94,1.06,3.74-3.76,8.11-5.16,13-2.7,5.23,2.63,6.87,7.15,5.75,12.73,5.62,2.49,6.89,4.09,8.21,9.78a2.76,2.76,0,0,0,1.72,1.48A10.61,10.61,0,0,1,96.22,108,41.83,41.83,0,0,1,93.72,112.71Zm58.66-84.88c-1.09.52-2.12.91-3,1.48-3.78,2.31-7.66,2.49-11.86,1.13-5.74-1.86-11.57-3.41-17.38-5a16.17,16.17,0,0,0-4.13-.59c-7.07-.06-14.15,0-21.23,0a10.86,10.86,0,0,0-9.39,4.87q-2.13,3-4.27,6l-2.29,3.19a30.06,30.06,0,0,1-2.1,2.92,2.7,2.7,0,0,0-.82,1.82,5.25,5.25,0,0,0,.28,2.22,3.9,3.9,0,0,0,1.25,1.94c.58.32,4.45,0,5.44,0a5.44,5.44,0,0,0,3-1.53,14.82,14.82,0,0,0,2-2.89,15.21,15.21,0,0,1,20.47-4.21c3,1.92,5.89,3.91,8.83,5.88q20.22,13.48,40.46,26.93c.63.42,1.81.87,2.25.58,5-3.34,9.89-6.83,14.9-10.32Zm1.19-11.16,33.34,51.22,13.25-7.26L166.93,8.4ZM41.8,8.41,8.58,60.63l13.27,7.24L55.18,16.65ZM72.55,80.13a3.74,3.74,0,0,0-2.62-3.85c-1.76-.68-3.16,0-4.17,1.54C61.18,84.76,56.59,91.69,52,98.65c-1.34,2-.88,3.91,1.06,5.13s3.59.79,4.91-1.19q6.8-10.19,13.54-20.42A15.19,15.19,0,0,0,72.55,80.13Zm-4.62,31.62a10.24,10.24,0,0,0,2.27-2c3.08-4.49,6-9.06,9-13.61a7.59,7.59,0,0,0,1-1.94,3.2,3.2,0,0,0-1.75-3.88c-1.53-.89-3.15-.76-4.15.7-3.52,5.17-7,10.38-10.28,15.68C62.63,109,64.58,111.87,67.94,111.75ZM46.42,92.84a6.12,6.12,0,0,0,1.77-1.37c2.33-3.39,4.55-6.85,6.79-10.3,1.12-1.72.69-3.24-.82-4.47a3.25,3.25,0,0,0-4.72.49c-2.42,3.5-4.8,7.05-6.9,10.75C41.3,90.14,43.34,92.91,46.42,92.84ZM90.18,103.9a13.19,13.19,0,0,0-2.74-2.79c-1.42-.79-2.83-.25-3.78,1.22-2.07,3.21-4.19,6.39-6.26,9.59-1.41,2.19-1.17,4,.64,5.16s3.72.7,5.09-1.34q3.05-4.59,6-9.25A19.48,19.48,0,0,0,90.18,103.9Z"/></g></g></svg>