<svg xmlns="http://www.w3.org/2000/svg" viewBox="0 0 161.75 154.22"><defs><style>.cls-1{fill:#2d49a0;}</style></defs><title>資產 1</title><g id="圖層_2" data-name="圖層 2"><g id="圖層_1-2" data-name="圖層 1"><path class="cls-1" d="M80.87,31.57c2.45,0,4.89,0,7.34,0,2.13,0,3.07,1,3.1,3.09a26.39,26.39,0,0,1,0,4.23c-.28,1.9.52,2.85,2.25,3.15A2,2,0,0,0,95,41.74c1.41-1.27,2.7-2.68,4.07-4s2.73-1.38,4.13,0q5.34,5.27,10.6,10.61c1.39,1.41,1.38,2.71,0,4.14s-2.62,2.76-4,4c-1.13,1-.06,1.76.12,2.61a1.24,1.24,0,0,0,1.43,1.17c1.9-.08,3.8,0,5.71,0A2.63,2.63,0,0,1,120,63.21q0,7.5,0,15a2.63,2.63,0,0,1-2.93,2.93c-1.9,0-3.81.06-5.71,0a1.24,1.24,0,0,0-1.43,1.17c-.18.85-1.27,1.6-.14,2.61,1.38,1.23,2.64,2.58,3.93,3.91,1.51,1.56,1.52,2.83,0,4.38q-5.16,5.21-10.37,10.38c-1.55,1.53-2.82,1.52-4.38,0-1.33-1.29-2.68-2.56-3.91-3.93-.72-.8-1.34-.48-2-.11s-1.87.27-1.78,1.67c.11,1.9.06,3.8,0,5.71a2.64,2.64,0,0,1-2.93,2.93q-7.5,0-15,0a2.62,2.62,0,0,1-2.92-2.93c0-1.9-.06-3.81,0-5.71a1.24,1.24,0,0,0-1.17-1.43c-.85-.17-1.6-1.26-2.61-.13-1.22,1.38-2.58,2.65-3.91,3.93-1.57,1.51-2.83,1.52-4.37,0Q53.19,98.4,48,93.19c-1.53-1.54-1.52-2.81,0-4.38,1.28-1.33,2.56-2.67,3.93-3.91.8-.72.48-1.34.11-2s-.26-1.87-1.67-1.78c-1.9.11-3.8.06-5.7,0a2.63,2.63,0,0,1-2.93-2.93q0-7.5,0-15a2.62,2.62,0,0,1,2.92-2.93c1.9,0,3.81-.07,5.71,0a1.24,1.24,0,0,0,1.43-1.17c.17-.85,1.26-1.6.14-2.61-1.37-1.23-2.64-2.58-3.93-3.91-1.52-1.56-1.53-2.83,0-4.37Q53.19,43,58.4,37.86c1.54-1.53,2.81-1.53,4.38,0,1.33,1.28,2.68,2.55,3.91,3.93,1,1.13,1.76.05,2.61-.12a1.24,1.24,0,0,0,1.17-1.43c-.08-1.9,0-3.8,0-5.71a2.63,2.63,0,0,1,2.92-2.93C75.87,31.55,78.37,31.57,80.87,31.57Zm5.22,73c0-2.08,0-4,0-6a2.8,2.8,0,0,1,2.11-2.91,46.5,46.5,0,0,0,5-2,3,3,0,0,1,4,.64c1.29,1.38,2.62,2.72,3.86,4l7.53-7.46c-1.32-1.28-2.66-2.61-4-3.91a3,3,0,0,1-.62-4,40.31,40.31,0,0,0,2-4.81A2.94,2.94,0,0,1,109,75.92c1.89,0,3.77,0,5.72,0V65.64a1.82,1.82,0,0,0-.4-.12l-5.05,0c-2.14,0-2.78-.5-3.48-2.45-.55-1.53-1.16-3-1.84-4.51-.89-1.93-.82-2.66.72-4.19,1.3-1.29,2.63-2.53,3.82-3.67L100.86,43c-1.26,1.35-2.57,2.79-3.91,4.21a2.81,2.81,0,0,1-3.55.61c-1.67-.76-3.37-1.5-5.1-2.11a3,3,0,0,1-2.22-3.17c0-1.88,0-3.77,0-5.66H75.66c0,2,0,3.91,0,5.8a2.86,2.86,0,0,1-2.19,3,49.2,49.2,0,0,0-4.67,1.89c-2,.95-2.74.88-4.33-.7L60.8,43.27,53.38,50.7c1.24,1.21,2.59,2.54,4,3.84a3,3,0,0,1,.6,3.83,42.94,42.94,0,0,0-2,4.8,3,3,0,0,1-3.26,2.33c-1.88-.06-3.76,0-5.61,0V75.93c1.92,0,3.72.05,5.5,0A3.06,3.06,0,0,1,56,78.31,33.12,33.12,0,0,0,57.89,83,3,3,0,0,1,57.18,87c-1.36,1.23-2.7,2.49-3.83,3.53l7.49,7.51c-.14.06-.07,0,0,0,1.32-1.29,2.65-2.57,3.94-3.89a2.9,2.9,0,0,1,3.69-.61c1.52.71,3.07,1.37,4.64,1.95,2.08.75,2.57,1.36,2.58,3.56,0,1.82,0,3.65,0,5.49Z"/><path class="cls-1" d="M10,125.72A15.68,15.68,0,0,1,32.6,104.93c4.92,3.52,9.1,11.17,4.83,20.64a9.83,9.83,0,0,0,1.2-1.14c3.76-5,7.5-10,11.26-15a7.34,7.34,0,0,1,12.88,1.7,7.28,7.28,0,0,1-1.2,7.22c-5.44,7.46-10.89,14.92-16.27,22.43a5.51,5.51,0,0,0-.91,2.8c-.12,2.49,0,5,0,7.5,0,2.14-1,3.12-3.07,3.12q-17.77,0-35.55,0c-2.19,0-3.11-1-3.12-3.24q0-7.26,0-14.51a10.37,10.37,0,0,1,6.81-10.3,4.28,4.28,0,0,0,.43-.21S9.91,125.86,10,125.72ZM7.84,148.88H39.13c0-2.28-.12-4.46,0-6.62a7.08,7.08,0,0,1,1.09-3.43c5.45-7.65,11-15.23,16.54-22.83a12.68,12.68,0,0,0,.91-1.34,2,2,0,0,0-.66-2.72,1.9,1.9,0,0,0-2.66.26,12,12,0,0,0-1.12,1.4c-3.88,5.17-7.73,10.36-11.67,15.49a3.85,3.85,0,0,1-2.3,1.55,58.89,58.89,0,0,1-8.3,0A3,3,0,0,1,28.89,129c-.27-.74.21-1.81.53-2.67.15-.4.71-.65,1.07-1a10.41,10.41,0,1,0-17.19-5.45,10,10,0,0,0,3.62,5.83c1.08.86,1.7,1.89,1.23,3.25s-1.71,1.84-3.14,1.77a20.14,20.14,0,0,0-2.28,0,5.09,5.09,0,0,0-4.87,4.82C7.76,140,7.84,144.36,7.84,148.88Z"/><path class="cls-1" d="M124.22,125.62c-3-9.08-1.47-16,4.77-20.57a15.73,15.73,0,0,1,19,.32c6.11,4.94,7.44,11.95,3.81,20.49.43.2.86.39,1.29.6a10.11,10.11,0,0,1,6.07,9.3c.12,5.11,0,10.22,0,15.33,0,2.14-1,3.11-3.08,3.11q-17.77,0-35.55,0c-2.14,0-3.09-1-3.11-3.08,0-2.55.07-5.11,0-7.66a5.18,5.18,0,0,0-.88-2.65q-8-11.19-16.18-22.29a7.52,7.52,0,0,1-1.7-5.93,7.05,7.05,0,0,1,5.47-6,6.94,6.94,0,0,1,7.65,2.71c2.48,3.17,4.84,6.42,7.26,9.63,1.4,1.87,2.79,3.75,4.21,5.61A14.33,14.33,0,0,0,124.22,125.62Zm29.67,23.29c0-4.61.11-9.12,0-13.61a5,5,0,0,0-4.94-4.56,13.28,13.28,0,0,1-3.08-.09,3.5,3.5,0,0,1-2.14-1.66c-.27-.73.22-1.8.52-2.68.12-.36.62-.58.94-.87A10.32,10.32,0,0,0,147,112a10.5,10.5,0,0,0-13.22-3.76c-6.93,3.24-8,12.36-2.09,17.47,1,.9,1.71,1.88,1.25,3.24s-1.69,1.83-3.12,1.8c-2.12,0-4.24-.07-6.36,0A3.76,3.76,0,0,1,120,129c-3.15-4.29-6.37-8.53-9.56-12.79-.95-1.26-1.87-2.54-2.85-3.77a2,2,0,0,0-3-.48,2,2,0,0,0-.38,3c.31.45.63.88,1,1.32,5.37,7.38,10.72,14.77,16.12,22.12a6,6,0,0,1,1.33,4c-.11,2.1,0,4.21,0,6.39Z"/><path class="cls-1" d="M156.54,23.82A23.48,23.48,0,1,1,133.21.26,23.53,23.53,0,0,1,156.54,23.82Zm-4.7-.1A18.78,18.78,0,1,0,133,42.53,18.84,18.84,0,0,0,151.84,23.72Z"/><path class="cls-1" d="M10.17,21.09a21.13,21.13,0,1,1,21,21.18A21.17,21.17,0,0,1,10.17,21.09Zm37.56,0A16.43,16.43,0,1,0,31.33,37.57,16.48,16.48,0,0,0,47.74,21.11Z"/><path class="cls-1" d="M36.52,75.92A18.26,18.26,0,1,1,18.25,57.67,18.31,18.31,0,0,1,36.52,75.92ZM31.3,76A13,13,0,1,0,18.15,89,13.06,13.06,0,0,0,31.3,76Z"/><path class="cls-1" d="M143.41,96.8a18.26,18.26,0,1,1,18.34-18.18A18.32,18.32,0,0,1,143.41,96.8Zm0-5.22a13,13,0,1,0-13-13.14A13.08,13.08,0,0,0,143.44,91.58Z"/><path class="cls-1" d="M98.45,10.29A71.86,71.86,0,0,0,65.79,9.7l-1.1-5.07a76.21,76.21,0,0,1,35,.6c-.21.9-.39,1.72-.6,2.54S98.72,9.34,98.45,10.29Z"/><path class="cls-1" d="M7.89,47.11v-5h5v5Z"/><path class="cls-1" d="M81,49.84A20.87,20.87,0,1,1,60,70.6,20.93,20.93,0,0,1,81,49.84Zm-.12,36.52A15.65,15.65,0,1,0,65.23,70.67,15.71,15.71,0,0,0,80.84,86.37Z"/><path class="cls-1" d="M135.41,33.08h-4.68c0-2.44-.13-4.83.08-7.19.06-.72.93-1.51,1.62-2a10.86,10.86,0,0,1,2.33-.84,4.53,4.53,0,0,0,3-4.86,4.74,4.74,0,0,0-9.08-.84c-.16.45-.26.92-.41,1.46l-4.35.25c-.65-3.73,2.5-8,6.56-9.08A9.39,9.39,0,0,1,142,16c1.57,4.73-.75,9.49-5.68,11.48a1.22,1.22,0,0,0-.91,1.4C135.44,30.22,135.41,31.58,135.41,33.08Z"/><path class="cls-1" d="M135.32,40.11h-4.51V35.58h4.51Z"/><path class="cls-1" d="M24.17,23.41h-4.5V18.89h4.5Z"/><path class="cls-1" d="M29,18.85h4.52V23.4H29Z"/><path class="cls-1" d="M42.93,23.43h-4.5V18.86h4.5Z"/><path class="cls-1" d="M27.66,72.86l-6.57,6.55c-1.15,1.15-2.28,2.33-3.47,3.45s-2.52,1.29-3.65.24c-1.81-1.7-3.5-3.54-5.28-5.36L12.49,74l2.79,3.68,8.71-9Z"/><path class="cls-1" d="M139.8,78.28l-3.48-2.84,4.25-3.81,2.73,3.58,3.32-3.83,4,4-3.82,3.13,4.06,3-4.43,4-2.78-3.52-3.29,3.8-3.69-4.12L140,79.1Z"/><path class="cls-1" d="M73.05,70.61c0-2.44,0-4.89,0-7.33s2-3.74,4.22-2.44q6.32,3.7,12.55,7.54c2,1.25,2,3.44,0,4.71q-6.24,3.84-12.55,7.54c-2.13,1.25-4.11.11-4.17-2.36S73.05,73.16,73.05,70.61Zm5.31-3.05v6.34l5.25-3.18Z"/></g></g></svg>