<svg xmlns="http://www.w3.org/2000/svg" viewBox="0 0 163.07 176.2"><defs><style>.cls-1{fill:#2d49a0;}</style></defs><title>資產 6</title><g id="圖層_2" data-name="圖層 2"><g id="圖層_1-2" data-name="圖層 1"><path class="cls-1" d="M163,135.89c-1.16-7.4-7.87-11-15.37-7.82-10.64,4.47-21.16,9.24-31.73,13.88l-9.91,4.32c-.12-1.18-.2-1.83-.24-2.48-.46-8.06-5.87-13.94-13.9-14.93-6.59-.81-13.23-1.22-19.77-2.3-5.35-.89-11.09-1.54-15.76-4-9.48-5-18.92-9.48-29.76-9.64v-7.48a4.12,4.12,0,0,0-4.11-4.11H4.11A4.12,4.12,0,0,0,0,105.43v64.19a4.12,4.12,0,0,0,4.11,4.11H22.4a4.12,4.12,0,0,0,4.11-4.11v-3.95L56,176.2h46.07c4.27-1.84,8.73-3.34,12.78-5.58,14.51-8,28.89-16.3,43.29-24.52A10,10,0,0,0,163,135.89ZM21.38,168.61H5.13V106.45H21.38Zm133.1-26.3q-14.2,8-28.42,16c-5.38,3-10.78,6-16.13,9.13a27.84,27.84,0,0,1-14.45,3.67c-11-.07-22,.19-33-.13a44.85,44.85,0,0,1-12.37-2.3c-7.39-2.4-14.58-5.42-21.91-8a4.39,4.39,0,0,1-1.69-1V118.2c7.07,0,13.7,1.14,19.09,4.78,11,7.43,23.36,8.79,35.93,9.91,3,.27,5.93.59,8.87,1,7.73,1.17,11,5.65,9.87,13.91h-29c-1.85,0-3.67.21-3.61,2.59s1.9,2.49,3.73,2.49c10.2,0,20.4,0,30.59-.06a12.21,12.21,0,0,0,4.57-1.18q20.29-8.85,40.52-17.82c1-.46,2.08-1,3.16-1.34,3.31-1.11,6.07-.06,7.24,2.68S157.6,140.55,154.48,142.31Z"/><path class="cls-1" d="M115.86,104.21c-1.16-3-2.13-5.47-3.27-8a3.18,3.18,0,0,1,1.29-4.32,3.61,3.61,0,0,0,.56-.6,3.25,3.25,0,0,1,4.35-1.17c2.53,1.24,5.24,2.3,7.86,3.33,2.2.86,3.29.41,4.19-1.69,3-7.07,6-14.15,8.86-21,.87-2.11.42-3.19-1.7-4.14-1.07-.48-2.19-.94-3.26-1.39-1.57-.65-3.18-1.32-4.75-2.07a4.31,4.31,0,0,1-2-2.85c-.74-3.43.68-5.69,4.12-6.53a24.64,24.64,0,0,0,4.21-1.62l1.58-.7c2.33-1,2.8-2.12,1.87-4.47s-2-4.88-2.95-7.26l-1.26-3.08-1.32-3.25c-1-2.4-2-4.89-3-7.31-.87-2.06-2-2.54-4.14-1.73-2.48,1-5.3,2.05-8,3.27a3.17,3.17,0,0,1-4.33-1.29,3.54,3.54,0,0,0-.6-.57A3.25,3.25,0,0,1,113,21.42c1.09-2.2,2-4.56,2.92-6.83l.33-.84c1-2.42.53-3.46-1.84-4.48-7-3-14-5.91-20.6-8.67-2.38-1-3.43-.56-4.47,1.83L88.8,3.75c-.92,2.08-1.87,4.24-2.64,6.39-.89,2.5-2.94,2.29-3.93,2.18a3.54,3.54,0,0,0-.83,0,3.17,3.17,0,0,1-3.95-2.19c-1-2.75-2.18-5.53-3.23-8C73.35.06,72.16-.45,70.11.37,63.13,3.18,56,6.08,49,9c-2,.84-2.54,2-1.73,4.13l.34.89c.9,2.35,1.84,4.78,2.93,7.06a3.22,3.22,0,0,1-1.17,4.28,4.25,4.25,0,0,0-.54.5c-.71.88-2,2.53-4.48,1.35-2.17-1.06-4.48-2-6.71-2.87l-1-.39c-2.42-1-3.46-.54-4.47,1.83-2.88,6.76-5.79,13.69-8.66,20.6-1,2.38-.57,3.43,1.82,4.48l1.16.52c2.13.95,4.33,1.92,6.54,2.7,2.52.89,2.31,2.94,2.2,3.93a3.49,3.49,0,0,0,0,.82A3.17,3.17,0,0,1,33,62.75c-2.72,1-5.4,2.12-8,3.23-2.06.88-2.57,2.08-1.75,4.12,2.8,7,5.7,14.09,8.62,21.15.85,2,2,2.54,4.14,1.74l.85-.33c2.36-.91,4.8-1.85,7.1-2.94a3.23,3.23,0,0,1,4.27,1.17,4.23,4.23,0,0,0,.5.54,9.06,9.06,0,0,1,.73.64,3,3,0,0,1,.62,3.84c-1,2.13-1.94,4.39-2.82,6.57l-.45,1.11c-1,2.42-.54,3.46,1.83,4.47,6.73,2.87,13.66,5.78,20.6,8.66,2.38,1,3.43.56,4.48-1.83l.5-1.12c1-2.14,1.93-4.36,2.72-6.58.89-2.51,2.95-2.29,3.93-2.19a3.52,3.52,0,0,0,.82,0,3.18,3.18,0,0,1,3.94,2.19c1,2.74,2.18,5.53,3.23,8,.88,2.06,2.08,2.57,4.13,1.74,7-2.81,14.13-5.72,21.15-8.63C116.17,107.5,116.67,106.3,115.86,104.21Zm-22.94,6.88-.49-1.21-1-2.45c-.76-1.84-1.55-3.75-2.28-5.64s-1.71-2.42-3.69-2.31a62.2,62.2,0,0,1-8.09,0c-2.12-.15-3.22.49-3.92,2.31s-1.49,3.76-2.23,5.58l-1,2.38-.5,1.24-17.31-7.37.53-1.21,1-2.26c.78-1.79,1.59-3.65,2.43-5.49s.52-3-1.05-4.43a70.75,70.75,0,0,1-5.84-5.92,3,3,0,0,0-3.84-1c-1.9.79-3.8,1.56-5.77,2.36L36,87.23,29,70.08l3.67-1.49L38,66.43c2.53-1,2.84-1.54,2.72-4.43-.1-2.46-.07-5,.07-7.79a3.15,3.15,0,0,0-2.17-3.57c-1.9-.77-3.8-1.6-5.64-2.4l-.88-.38L31,47.42a1.83,1.83,0,0,1-.59-.71A2.06,2.06,0,0,1,30.47,45L37,29.5,40.2,31c1.65.77,3.45,1.61,5.24,2.46s3.19.62,4.62-1a51.8,51.8,0,0,1,5.61-5.52c1.65-1.4,2-2.69,1.08-4.61C56,20.56,55.26,18.81,54.52,17c-.32-.81-.65-1.63-1-2.46L53,13.29l17.15-7,.49,1.21,1,2.36c.76,1.82,1.54,3.7,2.25,5.59s1.78,2.54,3.86,2.41a66.21,66.21,0,0,1,8.08,0c2,.12,3.1-.5,3.77-2.22.74-1.9,1.5-3.78,2.24-5.59l.9-2.23.5-1.23,17.17,7.22L109,17.17c-.68,1.64-1.42,3.4-2.15,5.17-1.07,2.58-1,3.05,1.19,5.05a76,76,0,0,1,5.44,5.6c1.25,1.43,2.38,1.71,4,1,1.86-.79,3.69-1.53,5.64-2.32l2.56-1,1.21-.49,7,17.15-1.21.49-2.4,1c-1.83.76-3.73,1.54-5.62,2.26a3.21,3.21,0,0,0-2.36,3.67c.15,3,.06,6,0,8.53a3,3,0,0,0,2.06,3.39c1.94.75,3.89,1.48,5.79,2.19l3.66,1.38-7.44,17.57-1.22-.54L123,86.29c-1.7-.76-3.46-1.56-5.24-2.31-2.47-1.05-3-.94-4.85,1.09-1.59,1.71-3.36,3.43-5.39,5.27s-2.12,2.38-1.12,4.87l1.2,3,1.67,4.16a2.18,2.18,0,0,1,.14.79c0,.06,0,.14,0,.22l.08,1Z"/><path class="cls-1" d="M67.58,65.8a4.06,4.06,0,0,0,1.3-4.46A14.4,14.4,0,0,1,71.77,49a15.1,15.1,0,0,1,12.07-5.62l1.94,0-7.19,7.19c-3,3-3,5.7,0,8.74l.85.86c.78.79,1.59,1.61,2.4,2.38a5.14,5.14,0,0,0,7.46,0c.73-.7,1.44-1.42,2.16-2.14l1-1,4.36-4.36L97,56.72c0,.19.05.35.08.5a3.93,3.93,0,0,1,.09,1,14.89,14.89,0,0,1-6.07,10.93,14.6,14.6,0,0,1-12,2.51A4.05,4.05,0,0,0,74.71,73c-1.28,1.35-3.87,4-6.73,6.82a25.73,25.73,0,0,0,3.78,2l.18.07c1.84-1.85,3.41-3.45,4.26-4.34a4.22,4.22,0,0,1,3.9-1.4,19.21,19.21,0,0,0,20.26-25.46,2.85,2.85,0,0,0-1.76-2,2.76,2.76,0,0,0-2.39,1q-3.09,3.05-6.15,6.14L85.67,60.2l-5.34-5.34L90.42,44.78c1.16-1.16,1.67-2.17,1.48-2.93a1.6,1.6,0,0,0-.45-.74A5.58,5.58,0,0,0,89.28,40,19.21,19.21,0,0,0,64.41,60.53a4,4,0,0,1-1.35,3.74c-.87.83-2.58,2.52-4.55,4.48a25,25,0,0,0,2.13,3.9C63.51,69.78,66.23,67.08,67.58,65.8Z"/><path class="cls-1" d="M109.82,47.26a30.57,30.57,0,1,0-.23,23.29A30.44,30.44,0,0,0,109.82,47.26ZM91,82a24.91,24.91,0,0,1-19.23-.18,25.3,25.3,0,0,1-8.05-5.4,24.82,24.82,0,0,1-5.47-8.29A25.21,25.21,0,0,1,72.11,35.36a25.22,25.22,0,0,1,32.75,13.87A25.21,25.21,0,0,1,91,82Z"/></g></g></svg>