<svg xmlns="http://www.w3.org/2000/svg" viewBox="0 0 215.08 143.69"><defs><style>.cls-1{fill:#2d49a0;}</style></defs><title>資產 3</title><g id="圖層_2" data-name="圖層 2"><g id="圖層_1-2" data-name="圖層 1"><path class="cls-1" d="M54.31,67.32c.72.51,1.26.93,1.83,1.3Q64.42,74,72.71,79.27c2.28,1.47,2.89,3.31,1.75,5.12s-3.1,2.08-5.36.64Q57.86,77.84,46.65,70.6c-3-1.94-3-4.59,0-6.52q11.2-7.25,22.45-14.44c2.27-1.46,4.21-1.21,5.37.6s.56,3.66-1.71,5.13Q64.46,60.71,56.17,66C55.59,66.39,55,66.81,54.31,67.32Z"/><path class="cls-1" d="M126.35,67.3,108.6,55.89c-3.06-2-3.82-3.73-2.46-5.73s3.13-1.91,6.11,0Q122.95,57,133.63,63.91c3.34,2.15,3.33,4.7,0,6.86q-10.95,7.05-21.92,14.08c-.24.15-.47.32-.71.46-1.92,1.11-3.77.79-4.85-.83s-.7-3.63,1.25-4.9c5.56-3.62,11.15-7.19,16.73-10.78C124.75,68.39,125.38,67.95,126.35,67.3Z"/><path class="cls-1" d="M83.89,89.37c-2.87.06-4.38-2.28-3.43-4.93C83,77.21,85.68,70,88.31,62.77q2.64-7.26,5.3-14.5c.92-2.49,2.67-3.52,4.62-2.78s2.63,2.65,1.73,5.13c-4.34,11.93-8.7,23.85-13,35.78C86.34,88.08,85.42,89.22,83.89,89.37Z"/><path class="cls-1" d="M13.91,113.65c0,7.17,4.15,11.36,11.26,11.36H85.06V136.9c-3.2,0-6.29,0-9.38,0-2.52,0-4,1.27-4.08,3.32s1.52,3.46,4.15,3.46h46c2.62,0,4.18-1.35,4.13-3.48s-1.56-3.28-4.1-3.3c-3.09,0-6.18,0-9.37,0V125h32.14c9.54,0,19.08,0,28.62,0,4.67,0,8.55-2.81,9.48-6.77H25.38c-3.63,0-4.68-1-4.68-4.63q0-15.49,0-31a15,15,0,0,1-6.79-1.8Q13.91,97.24,13.91,113.65Zm78.22,11.52h13.31v11.61H92.13Z"/><path class="cls-1" d="M48.51,16.43H172.36c3.32,0,4.43,1.12,4.44,4.45q0,6.89,0,13.78V36.8h6.79V20.95c0-7.13-4.18-11.31-11.32-11.31H44.77l.16.82a27.25,27.25,0,0,1,1.6,6Z"/><path class="cls-1" d="M155.54,108.68H31.85a2.17,2.17,0,0,1-2.17-2.17V79.91a15.36,15.36,0,0,1-3,1.61v25a5.18,5.18,0,0,0,5.17,5.17h127a9.29,9.29,0,0,1-.94-.77Z"/><path class="cls-1" d="M167.28,26a2.17,2.17,0,0,1,2.17,2.17V38a8.6,8.6,0,0,1,3-.77v-9A5.18,5.18,0,0,0,167.28,23H46.73a26.78,26.78,0,0,1-.44,3Z"/><path class="cls-1" d="M29.61.53A3.28,3.28,0,0,0,26.53.31,3.17,3.17,0,0,0,25.42,3.1c0,3.33,0,6.66,0,10v7.13H16.74V3.82c0-1.88-.41-3.12-1.17-3.58a1.83,1.83,0,0,0-1-.24,6.41,6.41,0,0,0-2.7.84A22.07,22.07,0,0,0,8.4,37.75a4.64,4.64,0,0,1,1.94,4.14c-.09,4.09-.07,20.17,0,24.2A15.9,15.9,0,0,0,10.81,70a10.84,10.84,0,0,0,11.38,7.82A11,11,0,0,0,31.81,67c.12-4.3.08-20.52,0-25a4.85,4.85,0,0,1,2-4.31A21.69,21.69,0,0,0,42,18,21.8,21.8,0,0,0,29.61.53ZM37.12,23a16.78,16.78,0,0,1-7.71,11.79,4.65,4.65,0,0,0-2.51,4.7c.13,4.85.06,20.66,0,27.24a6,6,0,0,1-3.41,5.64,5.47,5.47,0,0,1-2.45.6,5.7,5.7,0,0,1-3.31-1.14,6.3,6.3,0,0,1-2.53-5.59c0-1.53,0-4.2,0-7.31,0-6.78,0-16.07.06-19.49a4.67,4.67,0,0,0-2.56-4.68A16.55,16.55,0,0,1,5,22.39,17.35,17.35,0,0,1,10.24,8l1.6-1.55V18.15C11.84,23,14,25.2,19,25.21h1.39c1.28,0,2.6,0,3.88,0a5.9,5.9,0,0,0,6-6.07c0-1.16,0-2.33,0-3.49q0-.79,0-1.58V7l1.52,1.16.47.34a4.51,4.51,0,0,1,.86.72A17.11,17.11,0,0,1,37.12,23Z"/><path class="cls-1" d="M214.72,69.69c-.05-1.6-.62-2.13-2.23-2.11h-.72c-1.37,0-2.79,0-4.16.14a1.72,1.72,0,0,1-1.93-1.44,2.1,2.1,0,0,0-.2-.49,1.67,1.67,0,0,1,.19-2.39c1.23-1.19,2.42-2.5,3.47-3.65a1.78,1.78,0,0,0-.08-2.87c-3.2-3.06-6.46-6.15-9.68-9.17a1.76,1.76,0,0,0-2.86.08c-1.09,1.11-2.32,2.36-3.46,3.67a1.68,1.68,0,0,1-2.38.32,2.13,2.13,0,0,0-.5-.18,1.72,1.72,0,0,1-1.54-1.85c.05-1.65,0-3.35-.13-5-.08-1.47-.66-2-2.09-2-4.48.09-9,.21-13.33.36-1.42,0-2,.63-2,2.08,0,.69,0,1.39,0,2.07,0,1,.07,2,0,3a2.33,2.33,0,0,1-1,1.62,2.74,2.74,0,0,1-4.22-.58,14.5,14.5,0,0,0-1.9-1.88l-.75-.66c-1.16-1.06-2-1-3.08.09s-2.1,2.2-3.15,3.31l-1.34,1.42-1.43,1.5c-1,1.09-2.11,2.22-3.15,3.34a1.77,1.77,0,0,0,.08,2.87c1.11,1.09,2.37,2.33,3.67,3.46a1.67,1.67,0,0,1,.32,2.38,2.11,2.11,0,0,0-.18.5,1.72,1.72,0,0,1-1.85,1.53c-1.44,0-2.92,0-4.36.09l-.53,0c-1.63.08-2.14.62-2.11,2.24.1,4.5.22,8.88.36,13,.05,1.6.61,2.13,2.23,2.11h.84c1.33,0,2.71,0,4-.14A1.72,1.72,0,0,1,155.71,88a2.09,2.09,0,0,0,.21.49,1.67,1.67,0,0,1-.19,2.39c-1.23,1.19-2.42,2.5-3.47,3.65a1.76,1.76,0,0,0,.08,2.86c3.16,3,6.41,6.11,9.68,9.17a1.78,1.78,0,0,0,2.87-.08l.39-.4c1-1,2.1-2.13,3.05-3.26a1.71,1.71,0,0,1,2.34-.36,2.61,2.61,0,0,0,.43.18c.64.17,1.7.44,1.66,1.88s0,2.86.09,4.26l0,.63c.07,1.61.63,2.15,2.24,2.11,4.26-.1,8.65-.22,13-.36,1.6-.05,2.13-.61,2.12-2.23v-.75c0-1.36,0-2.77-.14-4.14a1.72,1.72,0,0,1,1.43-1.93,2.14,2.14,0,0,0,.49-.21,2.74,2.74,0,0,1,.42-.24,1.62,1.62,0,0,1,2,.43c1.18,1.22,2.44,2.36,3.65,3.48a1.76,1.76,0,0,0,2.86-.07c3-3.18,6.13-6.44,9.17-9.68A1.78,1.78,0,0,0,210,93l-.39-.38c-1.05-1-2.14-2.11-3.27-3.06a1.71,1.71,0,0,1-.36-2.34,2.58,2.58,0,0,0,.18-.43c.16-.64.44-1.7,1.88-1.66s2.82,0,4.2-.09l.69,0c1.61-.07,2.15-.63,2.11-2.24C215,78.48,214.86,74.09,214.72,69.69Zm-3.48,11.75a.58.58,0,0,1-.41.18l-1.43,0c-1.14,0-2.33,0-3.51,0a2.11,2.11,0,0,0-2.27,1.75,41.07,41.07,0,0,1-1.73,4.51,1.92,1.92,0,0,0,.45,2.48L205,92.93l1.2,1.14a.58.58,0,0,1,0,.83l-6.38,6.74a.59.59,0,0,1-.83,0l-1.09-1-2.46-2.32c-1.22-1.15-1.64-1.2-3.21-.41-1.29.65-2.64,1.24-4.15,1.83a2,2,0,0,0-1.49,2.19c0,1.19.07,2.4.08,3.57,0,.4,0,.8,0,1.2a.59.59,0,0,1,0,.33.61.61,0,0,1-.34.43.58.58,0,0,1-.51,0l-9.11.24a.59.59,0,0,1-.6-.59v-1.25c0-1.07,0-2.23,0-3.39a2.13,2.13,0,0,0-1.78-2.38,30.07,30.07,0,0,1-4.26-1.64,2.16,2.16,0,0,0-2.92.58c-.74.84-1.49,1.63-2.3,2.46l-1.07,1.12a.59.59,0,0,1-.83,0l-6.74-6.38a.59.59,0,0,1,0-.83l1-1.09c.78-.84,1.59-1.71,2.43-2.54a2.1,2.1,0,0,0,.38-2.84,38.35,38.35,0,0,1-1.92-4.28A2.05,2.05,0,0,0,155.89,83c-1.19.06-2.37.11-3.51.15l-1.4.06a.58.58,0,0,1-.61-.57l-.26-9.33a.59.59,0,0,1,.57-.6l1.19,0,3.41-.1c1.71-.06,2-.28,2.56-2a44.5,44.5,0,0,1,1.66-4.23,2,2,0,0,0-.47-2.59c-.86-.79-1.69-1.58-2.57-2.42l-1.19-1.13a.58.58,0,0,1,0-.83l6.38-6.74a.58.58,0,0,1,.83,0l1.12,1c.84.79,1.71,1.6,2.55,2.43a2,2,0,0,0,2.73.4c1.55-.8,3.16-1.47,4.53-2a1.91,1.91,0,0,0,1.42-2.09c-.07-1.22-.15-2.45-.23-3.64l-.1-1.46a.58.58,0,0,1,.57-.62l9.56-.24a.59.59,0,0,1,.6.58c0,.44,0,.9,0,1.36,0,1.09,0,2.21,0,3.34,0,1.64.26,1.94,1.87,2.48,1.29.43,2.62,1,4.09,1.59s1.93.57,3.06-.62l1.27-1.33L197.36,52a1.08,1.08,0,0,1,.33-.22l.12-.06a.58.58,0,0,1,.69.09l6.65,6.29a.59.59,0,0,1,0,.83L204.09,60c-.79.84-1.61,1.71-2.43,2.55a2,2,0,0,0-.37,2.73,36,36,0,0,1,1.93,4.29,2.1,2.1,0,0,0,2.35,1.64c1.18-.07,2.37-.12,3.52-.16l1.48-.06a.58.58,0,0,1,.61.57L211.4,81A.58.58,0,0,1,211.23,81.44Z"/><path class="cls-1" d="M191.23,66a15.3,15.3,0,0,0-21.12,22.14A15.3,15.3,0,1,0,191.23,66Zm-2.42,18.82a11.25,11.25,0,1,1,3.07-8A11.14,11.14,0,0,1,188.81,84.86Z"/></g></g></svg>