<svg xmlns="http://www.w3.org/2000/svg" viewBox="0 0 161.61 132.45"><defs><style>.cls-1{fill:#2d49a0;}</style></defs><title>資產 2</title><g id="圖層_2" data-name="圖層 2"><g id="圖層_1-2" data-name="圖層 1"><path class="cls-1" d="M71.92,38.45V14h-6c-2.17-.33-3.62-1.86-4.26-4.55a27.94,27.94,0,0,0-1.8-4.82c-.26-.59-.52-1.18-.77-1.77C57.92,0,56.45-.59,53.64.51s-5.45,2.15-8.17,3.24L42,5.15,38.26,6.62c-2.7,1.06-5.48,2.17-8.2,3.29-2.48,1-3.13,2.55-2.17,5.08,1.06,2.81,2.27,6,3.62,9a3.22,3.22,0,0,1-1.36,4.42,4.07,4.07,0,0,0-.72.73c-.71.84-2,2.41-4.48,1.18S19.82,28,17.26,27l-.94-.38c-2.91-1.19-4.25-.65-5.49,2.22C7.37,36.75,4,44.51.9,51.88-.3,54.72.25,56.1,3.1,57.37L4.58,58c2.34,1.05,4.76,2.14,7.18,3s2.32,3,2.19,4.07a4,4,0,0,0,0,1,3.22,3.22,0,0,1-2.27,4c-3.11,1.09-6.25,2.41-9,3.57C.11,74.82-.54,76.33.43,78.83c3.07,7.83,6.27,15.86,9.51,23.86,1,2.45,2.56,3.12,5.07,2.17l1-.38c2.65-1,5.39-2,8-3.24,2.43-1.14,3.7.42,4.38,1.26a5,5,0,0,0,.61.66c1,.8,2.61,2.15,1.38,4.63s-2.26,5-3.29,7.52l-.46,1.12c-1.18,2.88-.63,4.26,2.2,5.49,7.52,3.27,15.29,6.61,23.08,9.92,2.83,1.2,4.22.65,5.5-2.18l.59-1.31c1.08-2.39,2.2-4.86,3.1-7.34s3-2.34,4.07-2.22a6.52,6.52,0,0,0,.75,0v-.09h6V94.28h-6a28,28,0,0,1-25.5-17.63,27.91,27.91,0,0,1,25.5-38.19h6ZM53.69,34.16A34.63,34.63,0,0,0,65.92,101v11c-1.57,0-3.19-.08-4.88-.18a3.89,3.89,0,0,0-4.37,2.62c-.88,2.12-1.83,4.25-2.75,6.31L53,122.84a1.13,1.13,0,0,1-.29.57,1.18,1.18,0,0,1-.94.47,1.12,1.12,0,0,1-.88-.45l-16.12-7a1.13,1.13,0,0,1-.57-1.52l1-2.18c.88-1.85,1.84-3.88,2.83-5.88,1.11-2.26.76-3.89-1.19-5.61A57.84,57.84,0,0,1,30.73,95c-1.66-2-3.27-2.37-5.58-1.35-2,.87-3.93,1.63-6,2.44l-2.78,1.09a1.13,1.13,0,0,1-1.46-.63L8.28,79.91a1.13,1.13,0,0,1,.63-1.46l2.67-1.08c2-.83,4.16-1.69,6.29-2.47s3.1-2.17,3-4.66a73.84,73.84,0,0,1,.11-9c.17-2.44-.61-3.77-2.67-4.59S14,54.88,12,54l-2.5-1a1.13,1.13,0,0,1-.6-1.48L16,35a1.13,1.13,0,0,1,1.48-.59l2.11.9,6,2.58c3,1.28,3.71,1.13,6.08-1.38a85.62,85.62,0,0,1,6.32-6c1.73-1.49,2.1-2.91,1.27-4.91s-1.68-4.14-2.54-6.32L35.6,16.31a1.13,1.13,0,0,1,.63-1.46l16.6-6.62a1.13,1.13,0,0,1,1.46.63l1.1,2.73c.83,2.06,1.7,4.19,2.48,6.31a3.94,3.94,0,0,0,4.44,2.91c1.21-.05,2.41-.07,3.6-.06v11A34.27,34.27,0,0,0,53.69,34.16Z"/><path class="cls-1" d="M44.13,46.53a2.63,2.63,0,0,1,0-5.25l34-.47,9.26-20a2.63,2.63,0,0,1,2.38-1.52H102a2.63,2.63,0,0,1,0,5.25H91.43l-9.25,20A2.63,2.63,0,0,1,79.83,46l-35.66.49Z"/><path class="cls-1" d="M110.2,31.66A10.51,10.51,0,1,1,120.7,21.15,10.52,10.52,0,0,1,110.2,31.66Zm0-15.76a5.25,5.25,0,1,0,5.25,5.25A5.26,5.26,0,0,0,110.2,15.89Z"/><path class="cls-1" d="M36.62,57.79a2.63,2.63,0,0,1,0-5.25l58.67-.48,4-10.12a2.63,2.63,0,0,1,2.44-1.65h22a2.63,2.63,0,1,1,0,5.25H103.53l-4,10.1a2.63,2.63,0,0,1-2.42,1.65l-60.43.49Z"/><path class="cls-1" d="M133.46,52.67A10.51,10.51,0,1,1,144,42.16,10.52,10.52,0,0,1,133.46,52.67Zm0-15.76a5.25,5.25,0,1,0,5.25,5.25A5.26,5.26,0,0,0,133.46,36.91Z"/><path class="cls-1" d="M102,112.95H89.75a2.63,2.63,0,0,1-2.38-1.52l-9.26-20-34-.47a2.63,2.63,0,1,1,.07-5.25l35.66.49a2.63,2.63,0,0,1,2.35,1.52l9.25,20H102a2.63,2.63,0,0,1,0,5.25Z"/><path class="cls-1" d="M110.2,121.58a10.51,10.51,0,1,1,10.51-10.51A10.52,10.52,0,0,1,110.2,121.58Zm0-15.76a5.25,5.25,0,1,0,5.25,5.25A5.26,5.26,0,0,0,110.2,105.82Z"/><path class="cls-1" d="M123.74,91.93h-22a2.63,2.63,0,0,1-2.44-1.65l-4-10.12L36.6,79.69a2.63,2.63,0,0,1,0-5.25h0l60.43.49a2.63,2.63,0,0,1,2.42,1.65l4,10.1h20.21a2.63,2.63,0,1,1,0,5.25Z"/><path class="cls-1" d="M133.46,100.57A10.51,10.51,0,1,1,144,90.06,10.52,10.52,0,0,1,133.46,100.57Zm0-15.76a5.25,5.25,0,1,0,5.25,5.25A5.26,5.26,0,0,0,133.46,84.8Z"/><path class="cls-1" d="M151.1,77a10.51,10.51,0,1,1,10.51-10.51A10.52,10.52,0,0,1,151.1,77Zm0-15.76a5.25,5.25,0,1,0,5.25,5.25A5.26,5.26,0,0,0,151.1,61.27Z"/><path class="cls-1" d="M142.91,69.15H39.51a2.63,2.63,0,1,1,0-5.25h103.4a2.63,2.63,0,0,1,0,5.25Z"/></g></g></svg>